<svg viewBox="0 0 59 59" fill="none" xmlns="http://www.w3.org/2000/svg">
<path d="M8.30661 20.773C10.8879 9.41546 20.7949 4.30212 29.4974 4.30212H29.522C38.1999 4.30212 48.1316 9.39087 50.7129 20.7484C53.5891 33.4334 45.8208 44.1763 38.7899 50.9367C36.2979 53.3488 32.9657 54.6976 29.4974 54.698C26.1541 54.698 22.8108 53.4442 20.2295 50.9367C13.1987 44.1763 5.43036 33.458 8.30661 20.773ZM29.4974 33.0892C30.5144 33.0892 31.5213 32.8889 32.4608 32.4998C33.4004 32.1106 34.254 31.5402 34.9731 30.8211C35.6922 30.102 36.2626 29.2484 36.6517 28.3089C37.0409 27.3693 37.2412 26.3624 37.2412 25.3455C37.2412 24.3285 37.0409 23.3216 36.6517 22.3821C36.2626 21.4425 35.6922 20.5889 34.9731 19.8698C34.254 19.1507 33.4004 18.5803 32.4608 18.1912C31.5213 17.802 30.5144 17.6017 29.4974 17.6017C27.4437 17.6017 25.474 18.4176 24.0218 19.8698C22.5696 21.322 21.7537 23.2917 21.7537 25.3455C21.7537 27.3992 22.5696 29.3689 24.0218 30.8211C25.474 32.2734 27.4437 33.0892 29.4974 33.0892Z" fill="white"/>
</svg>
